<svg xmlns="http://www.w3.org/2000/svg" version="1.0" preserveAspectRatio="xMidYMid meet" viewBox="131.1 334.37 780.9 274.58">

<g transform="translate(0.000000,1024.000000) scale(0.100000,-0.100000)" fill="#000000" stroke="none">
<path d="M2430 6865 c-41 -19 -289 -123 -550 -230 -261 -107 -495 -205 -520 -217 -47 -24 -62 -55 -37 -76 7 -6 123 -54 258 -106 134 -51 300 -116 369 -144 338 -136 590 -232 609 -232 12 0 124 41 249 91 327 131 788 309 798 309 2 0 4 -76 4 -170 l0 -170 50 0 50 0 0 190 0 190 48 22 c52 25 65 54 35 80 -32 29 -1194 490 -1243 494 -35 2 -62 -5 -120 -31z"/>
<path d="M1790 5937 l0 -143 -54 -47 c-69 -59 -106 -133 -114 -223 -5 -63 -6 -67 -43 -89 -49 -31 -102 -102 -131 -173 -18 -47 -22 -77 -23 -167 0 -100 3 -116 28 -170 15 -33 42 -74 59 -92 30 -31 31 -36 32 -120 2 -80 5 -94 36 -151 63 -118 174 -190 307 -200 56 -4 63 -7 73 -32 19 -45 96 -117 158 -146 76 -36 186 -44 263 -19 63 21 121 56 142 85 14 20 15 20 52 -15 84 -80 177 -102 284 -65 109 36 194 102 239 185 9 17 21 20 79 21 89 1 146 28 212 100 65 70 92 144 93 244 0 73 1 76 38 115 145 152 138 395 -17 550 -43 43 -53 59 -53 87 0 82 -49 188 -111 243 l-34 30 3 167 c4 183 5 179 -53 142 -29 -18 -450 -185 -578 -230 l-108 -37 -81 22 c-64 17 -467 173 -660 255 l-38 16 0 -143z m228 -269 l99 -42 -14 -35 c-24 -56 -14 -150 20 -195 30 -39 74 -66 106 -66 56 0 60 80 6 110 -38 21 -53 68 -35 110 9 22 18 30 29 27 9 -3 71 -25 138 -49 l123 -43 0 -530 c0 -328 -4 -544 -10 -567 -12 -44 -73 -101 -125 -118 -89 -29 -217 7 -278 79 -24 29 -53 119 -45 142 3 9 35 13 99 13 107 1 149 18 149 60 0 26 -33 61 -49 52 -6 -4 -39 -7 -73 -8 -81 -1 -119 18 -154 78 -25 42 -29 45 -63 42 -33 -3 -36 -6 -39 -36 -2 -22 5 -48 22 -76 14 -24 23 -46 20 -49 -3 -3 -9 -27 -12 -54 -8 -48 -8 -48 -42 -45 -124 12 -239 127 -240 240 l0 42 50 0 c44 0 52 3 62 25 19 43 -1 71 -59 79 -65 8 -106 36 -140 93 -26 44 -28 56 -28 148 0 87 3 106 25 148 13 27 39 62 58 78 29 25 40 29 96 29 34 0 86 -7 115 -16 64 -19 100 -15 117 11 31 47 -40 94 -167 111 -47 6 -49 8 -49 38 0 52 18 101 53 139 30 35 97 76 124 77 6 0 56 -19 111 -42z m1224 -14 c59 -38 91 -97 96 -175 5 -80 -17 -131 -78 -179 -33 -26 -40 -38 -40 -66 0 -67 78 -56 150 22 22 24 40 49 40 56 0 6 13 -1 29 -16 77 -74 100 -224 49 -321 -14 -27 -35 -58 -46 -69 -21 -18 -22 -18 -63 18 -48 41 -92 48 -109 17 -18 -34 -11 -51 40 -98 60 -55 75 -96 60 -172 -12 -66 -31 -101 -74 -139 -77 -68 -161 -65 -241 9 -43 40 -72 48 -93 27 -23 -23 -13 -66 23 -106 l34 -39 -29 -40 c-35 -47 -106 -96 -167 -113 -79 -24 -153 11 -194 91 -18 37 -19 59 -17 580 l3 541 105 38 c58 20 129 47 159 59 45 18 59 20 82 11 41 -17 62 -46 61 -82 -1 -48 -32 -71 -109 -83 -75 -11 -93 -28 -77 -72 8 -25 14 -28 64 -31 124 -7 207 50 234 160 9 37 -10 108 -39 144 l-23 29 41 17 c49 20 78 16 129 -18z"/>
<path d="M2057 5176 c-26 -7 -71 -29 -100 -50 -68 -46 -130 -50 -167 -11 -30 32 -55 32 -76 0 -42 -64 33 -135 143 -135 62 0 97 13 173 64 51 35 59 37 125 36 99 -3 95 -5 95 39 0 21 -6 43 -12 49 -22 17 -130 22 -181 8z"/>
<path d="M2335 4920 c-31 -49 -65 -53 -130 -14 -36 20 -48 23 -64 14 -32 -16 -28 -70 7 -102 95 -92 258 -49 290 75 12 45 -4 67 -49 67 -23 0 -34 -8 -54 -40z"/>
<path d="M2806 5126 c-57 -16 -68 -29 -62 -75 7 -45 19 -51 74 -35 64 20 105 17 136 -7 56 -44 70 -110 36 -166 -23 -39 -59 -59 -122 -68 -52 -8 -64 -24 -52 -69 17 -69 171 -35 247 54 81 95 73 220 -20 315 -60 60 -138 77 -237 51z"/>
<path d="M6119 5561 c-41 -42 -41 -101 1 -143 28 -28 36 -30 78 -25 60 7 92 41 92 98 0 57 -42 99 -100 99 -33 0 -48 -6 -71 -29z"/>
<path d="M4220 5105 l0 -457 223 4 c215 3 224 4 277 29 105 50 149 119 150 232 0 97 -35 158 -115 200 -20 11 -24 16 -13 17 29 0 84 64 98 114 31 113 -13 225 -110 280 l-55 31 -227 3 -228 3 0 -456z m400 297 c47 -23 67 -78 48 -135 -21 -65 -50 -79 -173 -85 l-105 -5 0 122 0 121 98 0 c72 0 106 -4 132 -18z m-20 -361 c64 -13 100 -56 100 -119 0 -95 -43 -122 -200 -122 l-110 0 0 125 0 125 83 0 c45 -1 102 -5 127 -9z"/>
<path d="M7110 5105 l0 -455 198 0 c216 0 281 10 352 55 136 86 145 313 16 393 l-42 26 30 21 c47 31 76 97 76 174 0 79 -26 138 -78 181 -62 51 -111 60 -344 60 l-208 0 0 -455z m427 282 c24 -23 28 -36 28 -81 0 -95 -50 -126 -202 -126 l-83 0 0 121 0 121 115 -3 c110 -4 116 -5 142 -32z m-2 -359 c38 -20 60 -59 60 -108 0 -93 -46 -120 -204 -120 l-111 0 0 126 0 127 113 -5 c76 -3 122 -10 142 -20z"/>
<path d="M5640 5313 c-103 -19 -151 -50 -181 -118 -32 -69 -28 -75 47 -75 59 0 70 3 101 30 26 23 43 30 77 30 88 0 122 -27 128 -100 l3 -35 -130 -5 c-109 -4 -137 -9 -172 -28 -146 -77 -145 -287 2 -353 80 -37 213 -20 266 34 l29 29 0 -36 0 -36 80 0 80 0 0 226 c0 131 -5 243 -11 269 -15 58 -67 117 -126 143 -49 21 -148 34 -193 25z m169 -425 c-21 -74 -66 -108 -144 -108 -66 0 -95 20 -95 66 0 62 24 74 144 74 l105 0 -10 -32z"/>
<path d="M6677 5306 c-28 -8 -63 -27 -83 -47 l-36 -34 7 38 7 37 -81 0 -81 0 0 -325 0 -325 75 0 c71 0 75 1 75 23 -1 366 7 424 58 470 27 25 94 33 132 17 58 -24 65 -51 68 -293 l3 -218 76 3 75 3 -1 235 c-1 129 -6 251 -11 271 -31 117 -155 180 -283 145z"/>
<path d="M8093 5310 c-299 -60 -352 -496 -77 -635 53 -27 68 -30 154 -30 112 0 167 22 238 93 61 61 85 119 90 222 3 70 0 95 -19 144 -40 107 -133 184 -249 206 -60 11 -78 11 -137 0z m130 -144 c63 -26 117 -111 117 -186 0 -74 -46 -157 -102 -186 -40 -21 -125 -15 -161 12 -15 10 -38 41 -52 68 -82 163 48 355 198 292z"/>
<path d="M5204 5291 c-23 -10 -49 -29 -58 -42 l-16 -23 0 37 0 37 -80 0 -80 0 0 -325 0 -326 78 3 77 3 5 200 c5 186 7 203 28 236 30 49 81 73 143 67 l49 -5 0 78 0 79 -52 0 c-30 0 -71 -9 -94 -19z"/>
<path d="M6110 4975 l0 -326 78 3 77 3 3 323 2 322 -80 0 -80 0 0 -325z"/>
<path d="M8506 5288 c4 -7 53 -80 109 -163 l102 -150 -108 -155 c-59 -85 -108 -158 -109 -162 0 -5 38 -8 84 -8 l83 0 70 105 70 106 69 -105 69 -106 88 0 c48 0 87 3 87 7 0 4 -48 78 -106 164 -68 101 -103 163 -98 171 4 7 52 77 106 155 54 78 98 144 98 147 0 3 -38 6 -85 6 l-84 0 -69 -100 -69 -99 -67 99 -66 100 -91 0 c-69 0 -88 -3 -83 -12z"/>
</g>
</svg>