<svg xmlns="http://www.w3.org/2000/svg" width="831" height="366" viewBox="0 0 831 366" version="1.1"><path d="M 138.500 27.385 C 125.850 33.045, 100.875 44.115, 83 51.984 C 65.125 59.854, 49.938 66.731, 49.250 67.268 C 47.505 68.632, 47.692 71.496, 49.633 73.128 C 50.531 73.882, 60.094 78.366, 70.883 83.092 L 90.500 91.683 91 106.092 C 91.466 119.521, 91.686 120.816, 94.230 125.145 C 95.732 127.699, 98.390 130.992, 100.136 132.461 C 103.299 135.123, 103.304 135.141, 101.335 137.110 C 99.676 138.768, 98.904 138.914, 96.540 138.015 C 94.990 137.426, 92.400 135.831, 90.784 134.472 C 85.718 130.209, 77.063 131.839, 69.107 138.555 C 61.864 144.668, 58.769 158.055, 62.762 166 L 64.521 169.500 60.048 172 C 45.393 180.191, 42.842 206.731, 55.528 219.027 C 57.395 220.836, 58.720 222.643, 58.474 223.042 C 58.227 223.441, 57.567 227.004, 57.006 230.959 C 54.038 251.887, 63.784 267.545, 81.918 270.985 C 86.150 271.787, 96.315 271.073, 97.410 269.896 C 97.612 269.678, 97.279 267.374, 96.668 264.776 C 95.626 260.345, 95.237 259.923, 90.384 257.953 C 84.435 255.538, 81.733 252.999, 79.548 247.768 C 77.583 243.067, 77.525 235.639, 79.440 234.050 C 80.231 233.393, 82.134 233.001, 83.667 233.178 C 86.099 233.459, 86.549 234.051, 87.187 237.816 C 88.574 246.001, 92.423 249.883, 103.098 253.866 C 105.468 254.750, 105.748 255.454, 106.287 261.886 C 107.382 274.944, 113.157 283.494, 124.374 288.660 C 132.478 292.392, 142.828 292.542, 150.792 289.043 C 158.370 285.713, 159 284.418, 159 272.171 C 159 262.696, 158.847 261.845, 157.252 262.457 C 149.444 265.453, 139.713 265.454, 133.923 262.460 C 128.422 259.616, 123.097 254.034, 122.415 250.398 C 121.069 243.226, 126.817 241.700, 131.805 247.907 C 136.320 253.525, 142.400 255.676, 149.362 254.118 C 152.269 253.468, 155.626 252.250, 156.823 251.411 L 159 249.887 159 196.443 C 159 167.049, 158.712 143, 158.361 143 C 155.208 143, 132.289 138.441, 125.323 136.428 C 111.256 132.363, 104.597 127.679, 100.774 119.160 C 99.085 115.396, 98.921 113.563, 99.537 105.350 C 100.018 98.928, 100.609 96.037, 101.373 96.366 C 101.993 96.632, 108.771 99.597, 116.434 102.953 C 124.098 106.309, 137.986 112.249, 147.295 116.153 C 163.102 122.780, 164.463 123.178, 167.861 122.157 C 169.862 121.555, 184.100 115.606, 199.500 108.935 C 214.900 102.265, 228 96.602, 228.611 96.350 C 229.361 96.041, 229.898 99.078, 230.263 105.696 C 231.063 120.176, 228.258 125.397, 216.256 131.772 C 206.877 136.754, 196.738 139.596, 179.577 142.051 C 175.770 142.596, 172.057 143.537, 171.327 144.143 C 170.256 145.033, 170.003 155.005, 170.014 195.872 C 170.021 223.718, 170.289 247.476, 170.609 248.668 C 171.277 251.161, 179.260 255.013, 183.685 254.978 C 187.756 254.946, 194.072 251.763, 197.258 248.138 C 203.594 240.928, 209.268 247.854, 203.743 256.054 C 198.597 263.690, 186.497 266.874, 175.409 263.511 C 172.709 262.692, 170.387 262.017, 170.250 262.011 C 170.113 262.005, 170 266.971, 170 273.048 C 170 283.657, 170.103 284.191, 172.597 286.502 C 184.903 297.907, 211.687 290.105, 217.357 273.464 C 218.261 270.813, 219 267.867, 219 266.918 C 219 265.307, 219.334 265.319, 224.011 267.096 C 229.436 269.158, 237.343 269.581, 241.427 268.028 C 245.536 266.465, 252.976 258.982, 255.633 253.737 C 259.196 246.706, 260.422 238.926, 258.940 232.748 C 257.848 228.199, 257.907 227.632, 259.562 226.706 C 263.926 224.263, 269.953 217.553, 272.118 212.727 C 275.280 205.676, 275.371 193.646, 272.314 186.878 C 269.751 181.205, 263.959 174.640, 260.111 173.046 C 257.346 171.901, 257.227 171.566, 256.792 163.679 C 256.451 157.479, 255.719 154.290, 253.771 150.500 C 250.827 144.775, 242.594 136, 240.167 136 C 239.268 136, 236.207 137.217, 233.365 138.705 C 228.985 140.999, 227.956 141.208, 226.599 140.083 C 224.826 138.611, 224.441 136, 225.997 136 C 228.257 136, 234.910 128.636, 236.964 123.863 C 238.933 119.285, 239.136 117.317, 238.880 105.315 L 238.593 91.888 248.673 87.545 C 254.217 85.157, 259.739 82.675, 260.943 82.030 L 263.133 80.858 262.595 98.595 C 262.064 116.082, 262.020 116.370, 259.411 119.093 C 257.168 121.434, 256.858 122.439, 257.381 125.678 C 257.720 127.780, 257.977 131.616, 257.952 134.203 C 257.891 140.410, 260.343 143.006, 266.250 142.985 C 268.587 142.977, 271.625 142.398, 273 141.698 C 275.171 140.594, 275.520 139.706, 275.655 134.963 C 275.741 131.958, 276.127 127.668, 276.513 125.429 C 277.155 121.705, 276.951 121.137, 274.108 118.744 L 271 116.129 271 97.081 L 271 78.034 276 75.500 C 279.872 73.538, 281 72.434, 281 70.606 C 281 69.307, 280.438 67.802, 279.750 67.260 C 279.063 66.719, 269.275 62.208, 258 57.236 C 246.725 52.265, 227.600 43.833, 215.500 38.500 C 203.400 33.167, 187.481 26.148, 180.124 22.902 C 172.767 19.656, 165.567 17.021, 164.124 17.047 C 162.681 17.072, 151.150 21.725, 138.500 27.385 M 146.500 32.957 C 129.457 40.645, 107.718 50.216, 81.500 61.572 C 71.600 65.860, 63.179 69.629, 62.787 69.947 C 62.396 70.265, 69.821 73.865, 79.287 77.946 C 88.754 82.028, 107.300 90.022, 120.500 95.711 C 133.700 101.400, 149.106 108.086, 154.735 110.569 L 164.969 115.083 182.643 107.452 C 206.959 96.954, 258.648 74.377, 263.399 72.179 L 267.299 70.375 261.899 68.058 C 254.827 65.024, 219.543 49.504, 189.958 36.415 C 177.010 30.687, 165.310 26.043, 163.958 26.095 C 162.606 26.148, 154.750 29.236, 146.500 32.957 M 112.324 144.766 C 110.200 149.851, 110.908 160.055, 113.642 163.739 C 114.768 165.258, 118.122 168.411, 121.095 170.746 C 124.068 173.081, 128.456 176.793, 130.846 178.996 C 136.848 184.525, 141 184.068, 141 177.877 C 141 174.172, 137.194 169.933, 129.512 165.082 C 125.975 162.848, 122.557 160.041, 121.917 158.845 C 121.209 157.521, 120.949 154.230, 121.253 150.438 L 121.753 144.206 117.804 142.655 L 113.855 141.104 112.324 144.766 M 210.145 142.627 C 207.711 143.689, 206.945 144.559, 207.352 145.796 C 210.402 155.061, 210.468 155.895, 208.376 158.739 C 207.258 160.257, 203.987 162.782, 201.107 164.348 C 191.462 169.594, 185.805 177.650, 189.034 181.541 C 191.227 184.184, 194.297 183.126, 199.127 178.062 C 201.717 175.346, 205.625 172.211, 207.811 171.096 C 212.759 168.572, 218.941 161.489, 219.180 158.070 C 219.559 152.652, 218.775 148.372, 216.742 144.755 C 214.373 140.539, 214.693 140.642, 210.145 142.627 M 519.420 153.465 C 515.727 155.018, 514.171 156.895, 513.406 160.718 C 512.918 163.160, 513.380 164.394, 515.798 167.100 C 518.299 169.899, 519.492 170.455, 523 170.455 C 526.480 170.455, 527.704 169.895, 530.102 167.211 C 533.581 163.318, 533.782 160.006, 530.750 156.538 C 527.764 153.123, 523.186 151.882, 519.420 153.465 M 326 201.994 L 326 249.175 346.750 248.788 C 365.575 248.438, 368.045 248.187, 373.381 246.080 C 380.565 243.244, 386.168 238.350, 389.052 232.393 C 390.798 228.786, 391.146 226.584, 390.836 221.096 C 390.359 212.655, 387.141 207.248, 379.926 202.763 L 374.994 199.697 379.133 196.154 C 392.853 184.410, 387.962 165.237, 369.381 157.928 C 364.154 155.872, 361.415 155.571, 344.750 155.214 L 326 154.813 326 201.994 M 615 201.894 L 615 249 633.053 249 C 653.564 249, 662.087 247.599, 669.261 243.050 C 685.476 232.766, 684.657 210.498, 667.747 201.871 L 663.857 199.886 667.796 197.033 C 678.569 189.229, 678.757 171.719, 668.160 162.978 C 660.776 156.887, 655.572 155.697, 634.250 155.219 L 615 154.788 615 201.894 M 82.405 158.104 C 80.841 159.832, 80.500 161.755, 80.500 168.854 C 80.500 179.532, 82.516 184.060, 89.328 188.680 C 93.652 191.613, 96.555 192.502, 109 194.704 C 113.128 195.434, 113.707 195.913, 116 200.500 C 118.028 204.556, 118.500 206.978, 118.500 213.330 C 118.500 220.839, 118.373 221.269, 115.408 223.830 C 113.707 225.298, 110.895 227.267, 109.158 228.203 C 104.008 230.981, 105.271 237, 111.004 237 C 115.102 237, 122.517 231.680, 125.489 226.608 C 127.682 222.867, 128.804 221.951, 131.827 221.436 C 142.600 219.602, 147.506 216.500, 146.832 211.950 C 146.251 208.019, 143.788 207.415, 138.179 209.827 C 130.815 212.996, 129.369 212.754, 128.737 208.250 C 127.943 202.589, 124.171 193.357, 121.219 189.848 C 117.997 186.019, 113.398 184, 107.898 184 C 101.418 184, 96.195 181.986, 92.878 178.209 C 89.968 174.894, 89.865 174.452, 90.158 166.631 C 90.326 162.159, 90.108 157.938, 89.673 157.250 C 88.447 155.312, 84.515 155.774, 82.405 158.104 M 232.620 169.133 C 231.572 170.628, 231.291 172.665, 231.680 175.945 C 232.193 180.278, 231.999 180.823, 229.072 183.286 C 227.333 184.749, 224.018 186.439, 221.705 187.040 C 213.122 189.272, 212.496 189.567, 212.212 191.527 C 211.637 195.499, 214.374 197.504, 220.296 197.449 C 231.922 197.342, 240.484 189.400, 241.702 177.594 C 242.440 170.446, 240.874 167, 236.888 167 C 235.189 167, 233.534 167.827, 232.620 169.133 M 343 182 L 343 193 352.250 192.985 C 362.949 192.968, 365.708 191.922, 368.444 186.845 C 370.159 183.664, 370.242 182.752, 369.154 179.119 C 367.359 173.128, 362.743 171, 351.540 171 L 343 171 343 182 M 632 181.934 L 632 192.867 634.750 193.184 C 636.263 193.358, 640.992 193.242, 645.260 192.927 C 652.030 192.427, 653.403 191.988, 656.010 189.490 C 658.376 187.224, 659 185.772, 659 182.535 C 659 174.219, 653.847 171, 640.532 171 L 632 171 632 181.934 M 435 180.719 C 426.693 181.784, 425.594 182.283, 420.867 187.137 L 416 192.133 416 186.567 L 416 181 407.987 181 L 399.973 181 400.237 214.750 L 400.500 248.500 408.500 248.500 L 416.500 248.500 416.500 229 C 416.500 211.753, 416.723 209.051, 418.428 205.615 C 420.873 200.688, 426.978 197.723, 433.807 198.147 L 438.500 198.438 438.793 190.062 C 438.954 185.455, 438.729 181.396, 438.293 181.042 C 437.857 180.688, 436.375 180.542, 435 180.719 M 462.139 181.093 C 453.781 183.634, 447.876 189.678, 446.501 197.099 L 445.834 200.699 453.667 201.296 C 459.279 201.725, 461.617 201.557, 461.913 200.707 C 462.853 198.009, 467.939 194.102, 471.343 193.463 C 479.290 191.973, 485 196.067, 485 203.257 L 485 207.606 474.250 208.694 C 457.664 210.373, 448.259 214.720, 444.619 222.390 C 442.771 226.285, 442.491 234.527, 444.067 238.685 C 448.152 249.468, 464.106 253.890, 475.842 247.494 C 478.780 245.893, 482.042 243.491, 483.092 242.156 C 485.131 239.564, 485.191 239.639, 485.378 245 L 485.500 248.500 493.500 248.500 L 501.500 248.500 501.168 223.500 C 500.975 208.962, 500.364 196.856, 499.707 194.572 C 498.377 189.949, 493.865 185.126, 488.403 182.489 C 483.852 180.291, 467.615 179.428, 462.139 181.093 M 571 181.590 C 569.075 182.422, 565.813 184.745, 563.750 186.754 L 560 190.406 560 185.661 L 560 180.916 552.250 181.208 L 544.500 181.500 544.237 215.291 L 543.973 249.081 552.237 248.791 L 560.500 248.500 561 225.952 C 561.556 200.895, 561.849 199.723, 568.326 196.649 C 572.411 194.711, 573.656 194.635, 577.785 196.075 C 584.008 198.244, 584.446 200.034, 585 225.500 L 585.500 248.500 593.500 248.500 L 601.500 248.500 601.769 225.071 C 602.073 198.604, 601.283 193.670, 595.732 187.347 C 589.763 180.550, 579.136 178.076, 571 181.590 M 708.332 181.851 C 698.399 185.284, 691.575 192.823, 688.331 203.948 C 685.997 211.954, 686.940 223.887, 690.540 231.909 C 701.582 256.515, 736.235 256.449, 747.582 231.800 C 750.195 226.124, 750.475 224.510, 750.406 215.500 C 750.345 207.566, 749.852 204.272, 748.021 199.559 C 741.993 184.040, 724.536 176.252, 708.332 181.851 M 515 215 L 515 249 523 249 L 531 249 531 215 L 531 181 523 181 L 515 181 515 215 M 753 181.454 C 753 181.704, 757.500 188.903, 763 197.451 C 768.500 205.999, 773 213.488, 773 214.092 C 773 214.697, 772.159 216.386, 771.132 217.846 C 768.273 221.907, 752 248.012, 752 248.537 C 752 248.792, 755.768 249, 760.374 249 L 768.749 249 775.045 238 C 778.508 231.950, 781.602 227.010, 781.921 227.022 C 782.239 227.034, 785.413 231.984, 788.972 238.022 L 795.445 249 804.722 249 C 809.825 249, 814 248.762, 814 248.471 C 814 248.179, 810.493 242.667, 806.207 236.221 C 801.921 229.774, 796.926 222.141, 795.107 219.257 L 791.801 214.014 800.041 200.757 C 804.573 193.466, 809.163 186.037, 810.240 184.250 L 812.198 181 803.650 181 L 795.102 181 789.223 191.029 L 783.345 201.058 777.067 191.029 L 770.790 181 761.895 181 C 757.003 181, 753 181.204, 753 181.454 M 714.500 195.474 C 706.606 198.297, 702.095 207.600, 703.432 218.299 C 704.750 228.853, 710.766 235.500, 719 235.500 C 725.002 235.500, 728.638 233.070, 731.750 226.980 C 734.824 220.964, 734.910 209.512, 731.929 203.353 C 728.479 196.227, 721.375 193.015, 714.500 195.474 M 67.200 203.200 C 63.294 207.106, 70.452 217.679, 78.500 219.890 C 90.430 223.167, 102.647 218.764, 100.489 211.965 C 99.719 209.540, 95.870 208.464, 93.159 209.915 C 90.264 211.464, 83.394 211.255, 80.029 209.515 C 78.450 208.698, 76.192 206.673, 75.011 205.015 C 72.760 201.854, 69.341 201.059, 67.200 203.200 M 248.971 203.018 C 248.228 203.477, 246.918 205.349, 246.060 207.177 C 243.743 212.113, 238.223 214.479, 229 214.491 C 221.905 214.499, 221.224 214.298, 216.385 210.753 C 210.851 206.699, 204.330 204, 200.071 204 C 195.557 204, 187.329 208.860, 182.034 214.653 C 176.602 220.597, 175.807 223.611, 178.928 226.435 C 181.578 228.833, 184.239 227.748, 187.389 222.988 C 190.201 218.739, 196.334 215, 200.492 215 C 204.689 215, 209.640 217.583, 214.931 222.533 C 221.601 228.771, 223.458 233.760, 222.724 243.464 C 222.294 249.154, 222.491 251.163, 223.568 252.057 C 225.731 253.851, 229.793 252.300, 231.482 249.035 C 233.473 245.185, 233.451 234.323, 231.441 229.514 C 230.584 227.462, 230.022 225.686, 230.191 225.567 C 230.361 225.448, 233.381 224.836, 236.902 224.208 C 240.467 223.571, 245.026 221.925, 247.191 220.492 C 253.126 216.565, 257.431 208.491, 255.349 205.192 C 254.072 203.167, 250.628 201.994, 248.971 203.018 M 343 220.500 L 343 233 352.532 233 C 367.410 233, 373 229.650, 373 220.735 C 373 211.774, 366.578 208.016, 351.250 208.006 L 343 208 343 220.500 M 632 220.500 L 632 233 642.032 233 C 656.468 233, 661.614 230.298, 662.707 222.144 C 663.113 219.119, 662.719 217.282, 661.104 214.668 C 658.035 209.702, 653.025 208, 641.480 208 L 632 208 632 220.500 M 475.992 218.974 C 467.982 220.008, 463.303 221.799, 461.016 224.707 C 454.285 233.264, 466.893 240.989, 477.304 234.687 C 482.435 231.581, 484.985 227.456, 484.993 222.250 C 485.001 217.538, 485.552 217.739, 475.992 218.974 M 50 288.830 C 50 301.589, 50.256 304.090, 51.750 305.906 C 53.380 307.889, 65.643 312.636, 133.439 337.529 C 145.943 342.120, 150.731 344.418, 155.653 348.191 C 162.774 353.649, 165.609 354.116, 169.076 350.405 C 170.409 348.977, 173.300 346.768, 175.500 345.495 C 179.011 343.464, 211.595 329.682, 244.500 316.311 C 263.015 308.787, 267.627 306.315, 268.906 303.228 C 269.636 301.466, 269.958 295.596, 269.781 287.292 L 269.500 274.147 243 285.385 C 228.425 291.566, 207.803 300.192, 197.174 304.555 C 182.418 310.611, 176.253 313.701, 171.107 317.622 L 164.366 322.758 160.433 319.793 C 154.717 315.484, 147.411 312.007, 130.500 305.546 C 109.318 297.453, 51.649 274.887, 50.750 274.339 C 50.337 274.088, 50 280.609, 50 288.830" stroke="none" fill="#f6f0dc" fill-rule="evenodd"/><path d="M -0 183.001 L -0 366.002 415.750 365.751 L 831.500 365.500 831.753 182.750 L 832.005 -0 416.003 -0 L 0 0 -0 183.001 M 0.489 183.500 C 0.489 284.150, 0.607 325.177, 0.750 274.671 C 0.893 224.165, 0.893 141.815, 0.750 91.671 C 0.607 41.527, 0.489 82.850, 0.489 183.500 M 138.500 27.385 C 125.850 33.045, 100.875 44.115, 83 51.984 C 65.125 59.854, 49.938 66.731, 49.250 67.268 C 47.505 68.632, 47.692 71.496, 49.633 73.128 C 50.531 73.882, 60.094 78.366, 70.883 83.092 L 90.500 91.683 91 106.092 C 91.466 119.521, 91.686 120.816, 94.230 125.145 C 95.732 127.699, 98.390 130.992, 100.136 132.461 C 103.299 135.123, 103.304 135.141, 101.335 137.110 C 99.676 138.768, 98.904 138.914, 96.540 138.015 C 94.990 137.426, 92.400 135.831, 90.784 134.472 C 85.718 130.209, 77.063 131.839, 69.107 138.555 C 61.864 144.668, 58.769 158.055, 62.762 166 L 64.521 169.500 60.048 172 C 45.393 180.191, 42.842 206.731, 55.528 219.027 C 57.395 220.836, 58.720 222.643, 58.474 223.042 C 58.227 223.441, 57.567 227.004, 57.006 230.959 C 54.038 251.887, 63.784 267.545, 81.918 270.985 C 86.150 271.787, 96.315 271.073, 97.410 269.896 C 97.612 269.678, 97.279 267.374, 96.668 264.776 C 95.626 260.345, 95.237 259.923, 90.384 257.953 C 84.435 255.538, 81.733 252.999, 79.548 247.768 C 77.583 243.067, 77.525 235.639, 79.440 234.050 C 80.231 233.393, 82.134 233.001, 83.667 233.178 C 86.099 233.459, 86.549 234.051, 87.187 237.816 C 88.574 246.001, 92.423 249.883, 103.098 253.866 C 105.468 254.750, 105.748 255.454, 106.287 261.886 C 107.382 274.944, 113.157 283.494, 124.374 288.660 C 132.478 292.392, 142.828 292.542, 150.792 289.043 C 158.370 285.713, 159 284.418, 159 272.171 C 159 262.696, 158.847 261.845, 157.252 262.457 C 149.444 265.453, 139.713 265.454, 133.923 262.460 C 128.422 259.616, 123.097 254.034, 122.415 250.398 C 121.069 243.226, 126.817 241.700, 131.805 247.907 C 136.320 253.525, 142.400 255.676, 149.362 254.118 C 152.269 253.468, 155.626 252.250, 156.823 251.411 L 159 249.887 159 196.443 C 159 167.049, 158.712 143, 158.361 143 C 155.208 143, 132.289 138.441, 125.323 136.428 C 111.256 132.363, 104.597 127.679, 100.774 119.160 C 99.085 115.396, 98.921 113.563, 99.537 105.350 C 100.018 98.928, 100.609 96.037, 101.373 96.366 C 101.993 96.632, 108.771 99.597, 116.434 102.953 C 124.098 106.309, 137.986 112.249, 147.295 116.153 C 163.102 122.780, 164.463 123.178, 167.861 122.157 C 169.862 121.555, 184.100 115.606, 199.500 108.935 C 214.900 102.265, 228 96.602, 228.611 96.350 C 229.361 96.041, 229.898 99.078, 230.263 105.696 C 231.063 120.176, 228.258 125.397, 216.256 131.772 C 206.877 136.754, 196.738 139.596, 179.577 142.051 C 175.770 142.596, 172.057 143.537, 171.327 144.143 C 170.256 145.033, 170.003 155.005, 170.014 195.872 C 170.021 223.718, 170.289 247.476, 170.609 248.668 C 171.277 251.161, 179.260 255.013, 183.685 254.978 C 187.756 254.946, 194.072 251.763, 197.258 248.138 C 203.594 240.928, 209.268 247.854, 203.743 256.054 C 198.597 263.690, 186.497 266.874, 175.409 263.511 C 172.709 262.692, 170.387 262.017, 170.250 262.011 C 170.113 262.005, 170 266.971, 170 273.048 C 170 283.657, 170.103 284.191, 172.597 286.502 C 184.903 297.907, 211.687 290.105, 217.357 273.464 C 218.261 270.813, 219 267.867, 219 266.918 C 219 265.307, 219.334 265.319, 224.011 267.096 C 229.436 269.158, 237.343 269.581, 241.427 268.028 C 245.536 266.465, 252.976 258.982, 255.633 253.737 C 259.196 246.706, 260.422 238.926, 258.940 232.748 C 257.848 228.199, 257.907 227.632, 259.562 226.706 C 263.926 224.263, 269.953 217.553, 272.118 212.727 C 275.280 205.676, 275.371 193.646, 272.314 186.878 C 269.751 181.205, 263.959 174.640, 260.111 173.046 C 257.346 171.901, 257.227 171.566, 256.792 163.679 C 256.451 157.479, 255.719 154.290, 253.771 150.500 C 250.827 144.775, 242.594 136, 240.167 136 C 239.268 136, 236.207 137.217, 233.365 138.705 C 228.985 140.999, 227.956 141.208, 226.599 140.083 C 224.826 138.611, 224.441 136, 225.997 136 C 228.257 136, 234.910 128.636, 236.964 123.863 C 238.933 119.285, 239.136 117.317, 238.880 105.315 L 238.593 91.888 248.673 87.545 C 254.217 85.157, 259.739 82.675, 260.943 82.030 L 263.133 80.858 262.595 98.595 C 262.064 116.082, 262.020 116.370, 259.411 119.093 C 257.168 121.434, 256.858 122.439, 257.381 125.678 C 257.720 127.780, 257.977 131.616, 257.952 134.203 C 257.891 140.410, 260.343 143.006, 266.250 142.985 C 268.587 142.977, 271.625 142.398, 273 141.698 C 275.171 140.594, 275.520 139.706, 275.655 134.963 C 275.741 131.958, 276.127 127.668, 276.513 125.429 C 277.155 121.705, 276.951 121.137, 274.108 118.744 L 271 116.129 271 97.081 L 271 78.034 276 75.500 C 279.872 73.538, 281 72.434, 281 70.606 C 281 69.307, 280.438 67.802, 279.750 67.260 C 279.063 66.719, 269.275 62.208, 258 57.236 C 246.725 52.265, 227.600 43.833, 215.500 38.500 C 203.400 33.167, 187.481 26.148, 180.124 22.902 C 172.767 19.656, 165.567 17.021, 164.124 17.047 C 162.681 17.072, 151.150 21.725, 138.500 27.385 M 146.500 32.957 C 129.457 40.645, 107.718 50.216, 81.500 61.572 C 71.600 65.860, 63.179 69.629, 62.787 69.947 C 62.396 70.265, 69.821 73.865, 79.287 77.946 C 88.754 82.028, 107.300 90.022, 120.500 95.711 C 133.700 101.400, 149.106 108.086, 154.735 110.569 L 164.969 115.083 182.643 107.452 C 206.959 96.954, 258.648 74.377, 263.399 72.179 L 267.299 70.375 261.899 68.058 C 254.827 65.024, 219.543 49.504, 189.958 36.415 C 177.010 30.687, 165.310 26.043, 163.958 26.095 C 162.606 26.148, 154.750 29.236, 146.500 32.957 M 112.324 144.766 C 110.200 149.851, 110.908 160.055, 113.642 163.739 C 114.768 165.258, 118.122 168.411, 121.095 170.746 C 124.068 173.081, 128.456 176.793, 130.846 178.996 C 136.848 184.525, 141 184.068, 141 177.877 C 141 174.172, 137.194 169.933, 129.512 165.082 C 125.975 162.848, 122.557 160.041, 121.917 158.845 C 121.209 157.521, 120.949 154.230, 121.253 150.438 L 121.753 144.206 117.804 142.655 L 113.855 141.104 112.324 144.766 M 210.145 142.627 C 207.711 143.689, 206.945 144.559, 207.352 145.796 C 210.402 155.061, 210.468 155.895, 208.376 158.739 C 207.258 160.257, 203.987 162.782, 201.107 164.348 C 191.462 169.594, 185.805 177.650, 189.034 181.541 C 191.227 184.184, 194.297 183.126, 199.127 178.062 C 201.717 175.346, 205.625 172.211, 207.811 171.096 C 212.759 168.572, 218.941 161.489, 219.180 158.070 C 219.559 152.652, 218.775 148.372, 216.742 144.755 C 214.373 140.539, 214.693 140.642, 210.145 142.627 M 519.420 153.465 C 515.727 155.018, 514.171 156.895, 513.406 160.718 C 512.918 163.160, 513.380 164.394, 515.798 167.100 C 518.299 169.899, 519.492 170.455, 523 170.455 C 526.480 170.455, 527.704 169.895, 530.102 167.211 C 533.581 163.318, 533.782 160.006, 530.750 156.538 C 527.764 153.123, 523.186 151.882, 519.420 153.465 M 326 201.994 L 326 249.175 346.750 248.788 C 365.575 248.438, 368.045 248.187, 373.381 246.080 C 380.565 243.244, 386.168 238.350, 389.052 232.393 C 390.798 228.786, 391.146 226.584, 390.836 221.096 C 390.359 212.655, 387.141 207.248, 379.926 202.763 L 374.994 199.697 379.133 196.154 C 392.853 184.410, 387.962 165.237, 369.381 157.928 C 364.154 155.872, 361.415 155.571, 344.750 155.214 L 326 154.813 326 201.994 M 615 201.894 L 615 249 633.053 249 C 653.564 249, 662.087 247.599, 669.261 243.050 C 685.476 232.766, 684.657 210.498, 667.747 201.871 L 663.857 199.886 667.796 197.033 C 678.569 189.229, 678.757 171.719, 668.160 162.978 C 660.776 156.887, 655.572 155.697, 634.250 155.219 L 615 154.788 615 201.894 M 82.405 158.104 C 80.841 159.832, 80.500 161.755, 80.500 168.854 C 80.500 179.532, 82.516 184.060, 89.328 188.680 C 93.652 191.613, 96.555 192.502, 109 194.704 C 113.128 195.434, 113.707 195.913, 116 200.500 C 118.028 204.556, 118.500 206.978, 118.500 213.330 C 118.500 220.839, 118.373 221.269, 115.408 223.830 C 113.707 225.298, 110.895 227.267, 109.158 228.203 C 104.008 230.981, 105.271 237, 111.004 237 C 115.102 237, 122.517 231.680, 125.489 226.608 C 127.682 222.867, 128.804 221.951, 131.827 221.436 C 142.600 219.602, 147.506 216.500, 146.832 211.950 C 146.251 208.019, 143.788 207.415, 138.179 209.827 C 130.815 212.996, 129.369 212.754, 128.737 208.250 C 127.943 202.589, 124.171 193.357, 121.219 189.848 C 117.997 186.019, 113.398 184, 107.898 184 C 101.418 184, 96.195 181.986, 92.878 178.209 C 89.968 174.894, 89.865 174.452, 90.158 166.631 C 90.326 162.159, 90.108 157.938, 89.673 157.250 C 88.447 155.312, 84.515 155.774, 82.405 158.104 M 232.620 169.133 C 231.572 170.628, 231.291 172.665, 231.680 175.945 C 232.193 180.278, 231.999 180.823, 229.072 183.286 C 227.333 184.749, 224.018 186.439, 221.705 187.040 C 213.122 189.272, 212.496 189.567, 212.212 191.527 C 211.637 195.499, 214.374 197.504, 220.296 197.449 C 231.922 197.342, 240.484 189.400, 241.702 177.594 C 242.440 170.446, 240.874 167, 236.888 167 C 235.189 167, 233.534 167.827, 232.620 169.133 M 343 182 L 343 193 352.250 192.985 C 362.949 192.968, 365.708 191.922, 368.444 186.845 C 370.159 183.664, 370.242 182.752, 369.154 179.119 C 367.359 173.128, 362.743 171, 351.540 171 L 343 171 343 182 M 632 181.934 L 632 192.867 634.750 193.184 C 636.263 193.358, 640.992 193.242, 645.260 192.927 C 652.030 192.427, 653.403 191.988, 656.010 189.490 C 658.376 187.224, 659 185.772, 659 182.535 C 659 174.219, 653.847 171, 640.532 171 L 632 171 632 181.934 M 435 180.719 C 426.693 181.784, 425.594 182.283, 420.867 187.137 L 416 192.133 416 186.567 L 416 181 407.987 181 L 399.973 181 400.237 214.750 L 400.500 248.500 408.500 248.500 L 416.500 248.500 416.500 229 C 416.500 211.753, 416.723 209.051, 418.428 205.615 C 420.873 200.688, 426.978 197.723, 433.807 198.147 L 438.500 198.438 438.793 190.062 C 438.954 185.455, 438.729 181.396, 438.293 181.042 C 437.857 180.688, 436.375 180.542, 435 180.719 M 462.139 181.093 C 453.781 183.634, 447.876 189.678, 446.501 197.099 L 445.834 200.699 453.667 201.296 C 459.279 201.725, 461.617 201.557, 461.913 200.707 C 462.853 198.009, 467.939 194.102, 471.343 193.463 C 479.290 191.973, 485 196.067, 485 203.257 L 485 207.606 474.250 208.694 C 457.664 210.373, 448.259 214.720, 444.619 222.390 C 442.771 226.285, 442.491 234.527, 444.067 238.685 C 448.152 249.468, 464.106 253.890, 475.842 247.494 C 478.780 245.893, 482.042 243.491, 483.092 242.156 C 485.131 239.564, 485.191 239.639, 485.378 245 L 485.500 248.500 493.500 248.500 L 501.500 248.500 501.168 223.500 C 500.975 208.962, 500.364 196.856, 499.707 194.572 C 498.377 189.949, 493.865 185.126, 488.403 182.489 C 483.852 180.291, 467.615 179.428, 462.139 181.093 M 571 181.590 C 569.075 182.422, 565.813 184.745, 563.750 186.754 L 560 190.406 560 185.661 L 560 180.916 552.250 181.208 L 544.500 181.500 544.237 215.291 L 543.973 249.081 552.237 248.791 L 560.500 248.500 561 225.952 C 561.556 200.895, 561.849 199.723, 568.326 196.649 C 572.411 194.711, 573.656 194.635, 577.785 196.075 C 584.008 198.244, 584.446 200.034, 585 225.500 L 585.500 248.500 593.500 248.500 L 601.500 248.500 601.769 225.071 C 602.073 198.604, 601.283 193.670, 595.732 187.347 C 589.763 180.550, 579.136 178.076, 571 181.590 M 708.332 181.851 C 698.399 185.284, 691.575 192.823, 688.331 203.948 C 685.997 211.954, 686.940 223.887, 690.540 231.909 C 701.582 256.515, 736.235 256.449, 747.582 231.800 C 750.195 226.124, 750.475 224.510, 750.406 215.500 C 750.345 207.566, 749.852 204.272, 748.021 199.559 C 741.993 184.040, 724.536 176.252, 708.332 181.851 M 515 215 L 515 249 523 249 L 531 249 531 215 L 531 181 523 181 L 515 181 515 215 M 753 181.454 C 753 181.704, 757.500 188.903, 763 197.451 C 768.500 205.999, 773 213.488, 773 214.092 C 773 214.697, 772.159 216.386, 771.132 217.846 C 768.273 221.907, 752 248.012, 752 248.537 C 752 248.792, 755.768 249, 760.374 249 L 768.749 249 775.045 238 C 778.508 231.950, 781.602 227.010, 781.921 227.022 C 782.239 227.034, 785.413 231.984, 788.972 238.022 L 795.445 249 804.722 249 C 809.825 249, 814 248.762, 814 248.471 C 814 248.179, 810.493 242.667, 806.207 236.221 C 801.921 229.774, 796.926 222.141, 795.107 219.257 L 791.801 214.014 800.041 200.757 C 804.573 193.466, 809.163 186.037, 810.240 184.250 L 812.198 181 803.650 181 L 795.102 181 789.223 191.029 L 783.345 201.058 777.067 191.029 L 770.790 181 761.895 181 C 757.003 181, 753 181.204, 753 181.454 M 714.500 195.474 C 706.606 198.297, 702.095 207.600, 703.432 218.299 C 704.750 228.853, 710.766 235.500, 719 235.500 C 725.002 235.500, 728.638 233.070, 731.750 226.980 C 734.824 220.964, 734.910 209.512, 731.929 203.353 C 728.479 196.227, 721.375 193.015, 714.500 195.474 M 67.200 203.200 C 63.294 207.106, 70.452 217.679, 78.500 219.890 C 90.430 223.167, 102.647 218.764, 100.489 211.965 C 99.719 209.540, 95.870 208.464, 93.159 209.915 C 90.264 211.464, 83.394 211.255, 80.029 209.515 C 78.450 208.698, 76.192 206.673, 75.011 205.015 C 72.760 201.854, 69.341 201.059, 67.200 203.200 M 248.971 203.018 C 248.228 203.477, 246.918 205.349, 246.060 207.177 C 243.743 212.113, 238.223 214.479, 229 214.491 C 221.905 214.499, 221.224 214.298, 216.385 210.753 C 210.851 206.699, 204.330 204, 200.071 204 C 195.557 204, 187.329 208.860, 182.034 214.653 C 176.602 220.597, 175.807 223.611, 178.928 226.435 C 181.578 228.833, 184.239 227.748, 187.389 222.988 C 190.201 218.739, 196.334 215, 200.492 215 C 204.689 215, 209.640 217.583, 214.931 222.533 C 221.601 228.771, 223.458 233.760, 222.724 243.464 C 222.294 249.154, 222.491 251.163, 223.568 252.057 C 225.731 253.851, 229.793 252.300, 231.482 249.035 C 233.473 245.185, 233.451 234.323, 231.441 229.514 C 230.584 227.462, 230.022 225.686, 230.191 225.567 C 230.361 225.448, 233.381 224.836, 236.902 224.208 C 240.467 223.571, 245.026 221.925, 247.191 220.492 C 253.126 216.565, 257.431 208.491, 255.349 205.192 C 254.072 203.167, 250.628 201.994, 248.971 203.018 M 343 220.500 L 343 233 352.532 233 C 367.410 233, 373 229.650, 373 220.735 C 373 211.774, 366.578 208.016, 351.250 208.006 L 343 208 343 220.500 M 632 220.500 L 632 233 642.032 233 C 656.468 233, 661.614 230.298, 662.707 222.144 C 663.113 219.119, 662.719 217.282, 661.104 214.668 C 658.035 209.702, 653.025 208, 641.480 208 L 632 208 632 220.500 M 475.992 218.974 C 467.982 220.008, 463.303 221.799, 461.016 224.707 C 454.285 233.264, 466.893 240.989, 477.304 234.687 C 482.435 231.581, 484.985 227.456, 484.993 222.250 C 485.001 217.538, 485.552 217.739, 475.992 218.974 M 50 288.830 C 50 301.589, 50.256 304.090, 51.750 305.906 C 53.380 307.889, 65.643 312.636, 133.439 337.529 C 145.943 342.120, 150.731 344.418, 155.653 348.191 C 162.774 353.649, 165.609 354.116, 169.076 350.405 C 170.409 348.977, 173.300 346.768, 175.500 345.495 C 179.011 343.464, 211.595 329.682, 244.500 316.311 C 263.015 308.787, 267.627 306.315, 268.906 303.228 C 269.636 301.466, 269.958 295.596, 269.781 287.292 L 269.500 274.147 243 285.385 C 228.425 291.566, 207.803 300.192, 197.174 304.555 C 182.418 310.611, 176.253 313.701, 171.107 317.622 L 164.366 322.758 160.433 319.793 C 154.717 315.484, 147.411 312.007, 130.500 305.546 C 109.318 297.453, 51.649 274.887, 50.750 274.339 C 50.337 274.088, 50 280.609, 50 288.830" stroke="none" fill="#040404" fill-rule="evenodd"/></svg>